<svg width="80" height="80" viewBox="0 0 80 80" fill="none" xmlns="http://www.w3.org/2000/svg">
<g clip-path="url(#clip0_6511_10622)">
<g clip-path="url(#clip1_6511_10622)">
<mask id="mask0_6511_10622" style="mask-type:luminance" maskUnits="userSpaceOnUse" x="0" y="0" width="80" height="80">
<path d="M80 0H0V80H80V0Z" fill="white"/>
</mask>
<g mask="url(#mask0_6511_10622)">
<path d="M64.5 35.5H34.5V37.5L35 38.5L37.5 41L39.5 42L40.5 43.5L40 45.5L36.5 47L34.5 50.5L34 61L35.5 72.5L36.5 76L38.5 78C39 78.1667 40.2 78.5 41 78.5C42 78.5 46.5 79 47.5 79H53H56.5L55.5 77C55.1667 76.1667 54.5 74.2 54.5 73C54.5 71.8 54.1667 68.5 54 67V59.5C54 58.7 55 52.8333 55.5 50V48.5C55.5 48 57 48 57.5 47.5C58 47 59.5 47 60 47C60.5 47 62 46.5 62.5 46.5C63 46.5 62 46 61.5 45.5C61 45 61.5 45 61.5 44.5C61.5 44 61.5 43 61 42.5C60.6 42.1 61.8333 41.3333 62.5 41C63 40.8333 64 40.4 64 40C64 39.6 65 39.1667 65.5 39L66.5 37.5V36L64.5 35.5Z" fill="#FDC040"/>
<path d="M7.55469 61.5926C7.55469 64.0973 9.59235 66.135 12.0969 66.135C14.6015 66.135 16.6392 64.0973 16.6392 61.5926C16.6392 59.0879 14.6015 57.0503 12.0969 57.0503C9.59235 57.0503 7.55469 59.0879 7.55469 61.5926ZM14.2956 61.5926C14.2956 62.805 13.3094 63.7912 12.097 63.7912C10.8847 63.7912 9.8986 62.805 9.8986 61.5926C9.8986 60.3803 10.8848 59.394 12.097 59.394C13.3092 59.394 14.2956 60.3804 14.2956 61.5926Z" fill="#3BB77E"/>
<path d="M17.873 55.3314C19.8449 55.3314 21.4492 53.7271 21.4492 51.7553C21.4492 49.7834 19.8449 48.1792 17.873 48.1792C15.9011 48.1792 14.2969 49.7834 14.2969 51.7553C14.2969 53.7271 15.9011 55.3314 17.873 55.3314ZM17.873 50.5228C18.5527 50.5228 19.1055 51.0756 19.1055 51.7551C19.1055 52.4346 18.5527 52.9875 17.873 52.9875C17.1935 52.9875 16.6406 52.4346 16.6406 51.7551C16.6406 51.0756 17.1936 50.5228 17.873 50.5228Z" fill="#3BB77E"/>
<path d="M30.3439 69.9975C30.3439 68.0256 28.7395 66.4214 26.7676 66.4214C24.7958 66.4214 23.1914 68.0256 23.1914 69.9975C23.1914 71.9693 24.7958 73.5736 26.7676 73.5736C28.7395 73.5736 30.3439 71.9693 30.3439 69.9975ZM25.5353 69.9975C25.5353 69.3179 26.0881 68.7651 26.7678 68.7651C27.4475 68.7651 28.0003 69.3179 28.0003 69.9975C28.0003 70.677 27.4475 71.2298 26.7678 71.2298C26.0881 71.2298 25.5353 70.677 25.5353 69.9975Z" fill="#3BB77E"/>
<path d="M77.4966 50.2262C77.1591 47.7714 75.0385 45.9203 72.564 45.9203H71.7338L72.5337 43.8403C72.766 43.2363 72.4646 42.5581 71.8604 42.3259C71.2562 42.0934 70.5782 42.3952 70.3462 42.9991L69.2229 45.9203H64.3462C64.181 45.8411 64.0138 45.7667 63.8435 45.7031C62.6252 45.2491 62.0076 44.5417 62.0076 43.6012C62.0076 42.7248 63.4893 42.0139 64.1274 41.7484C66.0207 40.9584 67.3777 39.2875 67.7574 37.2778C68.544 33.1047 68.9012 28.6397 69.0443 26.3481C69.1171 25.1581 68.8477 23.9939 68.2654 22.9814C65.206 17.662 59.6641 14.04 57.8107 12.9313V9.18375H57.8718C58.5191 9.18375 59.0437 8.65906 59.0437 8.01188V3.79797C59.0437 1.70375 57.3398 0 55.2455 0H45.9646C43.8705 0 42.1666 1.70375 42.1666 3.79797V8.01188C42.1666 8.65906 42.6912 9.18375 43.3385 9.18375H43.3999V12.9308C42.2037 13.6463 39.4709 15.4098 36.8609 17.9995V17.1773C38.1957 16.4552 39.1045 15.0423 39.1045 13.4211C39.1045 11.0678 37.1899 9.15344 34.8366 9.15344H16.3202C13.967 9.15344 12.0526 11.068 12.0526 13.4211C12.0526 15.0427 12.9618 16.4558 14.2971 17.1778V20.7633C12.693 21.6991 8.33538 24.4806 4.49663 29.092C3.80694 29.9228 3.36741 30.9309 3.22554 32.008C3.03475 33.4573 2.74882 35.8236 2.47038 38.8648C2.41132 39.5094 2.886 40.0797 3.53054 40.1387C3.56679 40.142 3.60288 40.1438 3.63866 40.1438C4.23757 40.1438 4.74866 39.6869 4.80429 39.0786C5.07929 36.0755 5.361 33.7422 5.54913 32.3141C5.61038 31.8494 5.76569 31.4073 6.00194 31.0122H32.5588C32.7655 32.9616 33.0543 35.1581 33.4529 37.277C33.8307 39.2867 35.1879 40.9583 37.0841 41.7487C37.7207 42.0136 39.2013 42.7242 39.2013 43.6011C39.2013 44.542 38.5843 45.2492 37.3665 45.7033C35.1798 46.52 33.638 48.5347 33.4387 50.8356C32.9774 56.1433 32.6351 66.4137 35.526 75.5647C35.7695 76.3358 36.1491 77.0327 36.6329 77.6342C36.4079 77.648 36.1824 77.6564 35.956 77.6564H15.1999C9.53429 77.6564 4.77116 73.2384 4.35616 67.5986C3.82022 60.3138 3.846 52.2808 4.43304 43.7227C4.47725 43.0769 3.98975 42.5177 3.34413 42.4733C2.69897 42.4286 2.13897 42.9164 2.09475 43.5622C1.50022 52.2306 1.4746 60.3755 2.01882 67.7705C2.26413 71.1061 3.75147 74.1966 6.20679 76.473C8.65991 78.7473 11.8538 80 15.1999 80H35.9562C37.0885 80 38.2095 79.8562 39.2952 79.5738C40.0138 79.8495 40.792 79.9992 41.5999 79.9992L72.564 80C75.0385 80 77.1591 78.1489 77.4966 75.6939C78.6582 67.2444 78.6582 58.6759 77.4966 50.2262ZM75.9148 67.3887C74.9813 67.9598 73.9193 68.2602 72.8123 68.2602C69.528 68.2602 66.8562 65.5889 66.8562 62.3056C66.8562 59.0214 69.5282 56.3494 72.8123 56.3494C73.8891 56.3494 74.9246 56.6336 75.8377 57.1742C76.0538 60.5755 76.0802 63.9856 75.9148 67.3887ZM66.7051 26.2033C66.5932 27.9941 66.3474 31.1444 65.8623 34.4075H35.349C34.8646 31.1473 34.6171 27.9956 34.504 26.2047C34.4593 25.4734 34.6224 24.7634 34.9766 24.1494C35.1196 23.9008 35.2695 23.6562 35.4246 23.4153H65.7854C65.9407 23.6562 66.0907 23.9009 66.2337 24.1495C66.5868 24.7633 66.7496 25.4739 66.7051 26.2033ZM16.6409 17.6889H34.5171V20.2778H16.6409V17.6889ZM44.5104 3.79797C44.5104 2.99609 45.1627 2.34375 45.9646 2.34375H55.2455C56.0474 2.34375 56.6999 2.99609 56.6999 3.79797V6.84H44.5104V3.79797ZM55.467 9.18375V12.4367H45.7437V9.18375H55.467ZM44.8807 14.7805H56.3296C57.319 15.3584 61.0374 17.6506 64.0129 21.0717H37.1971C40.1726 17.65 43.8924 15.3577 44.8807 14.7805ZM16.3202 11.4972H34.8366C35.8976 11.4972 36.7607 12.3603 36.7607 13.4211C36.7607 14.4816 35.8984 15.3442 34.838 15.345H16.3187C15.2584 15.3442 14.3962 14.4814 14.3962 13.4211C14.3962 12.3603 15.2593 11.4972 16.3202 11.4972ZM8.03475 28.6684C11.4166 25.2014 14.8463 23.145 15.7704 22.6219H33.1588C33.0871 22.7406 33.0152 22.8591 32.946 22.9795C32.3621 23.9914 32.092 25.1561 32.1649 26.3502C32.2045 26.9769 32.2604 27.7672 32.3363 28.6684H8.03475ZM72.564 77.6562H59.6107L58.789 77.6555C57.4862 77.6477 56.3719 76.6702 56.1938 75.3748C56.0093 74.0316 55.8541 72.6797 55.7326 71.3567C55.6732 70.7123 55.1029 70.237 54.4584 70.297C53.8138 70.3562 53.3394 70.9267 53.3987 71.5713C53.5235 72.9289 53.6827 74.3158 53.8719 75.6939C53.9704 76.4095 54.2212 77.0733 54.5873 77.6553H41.5999C39.832 77.6553 38.2893 76.5314 37.7612 74.8586C34.9924 66.0942 35.3276 56.1725 35.7737 51.038C35.8954 49.633 36.8426 48.4008 38.1859 47.8989C40.3207 47.103 41.5451 45.5364 41.5451 43.6009C41.5451 42.4445 40.9274 40.8089 37.9852 39.585C36.821 39.0997 35.9877 38.075 35.7563 36.8438C35.7505 36.813 35.7449 36.7819 35.7393 36.7511H65.4713C65.4657 36.7816 65.4601 36.8123 65.4543 36.8428C65.2215 38.0747 64.388 39.0998 63.2259 39.5847C60.2815 40.8095 59.6635 42.4448 59.6635 43.6011C59.6635 44.4583 59.9049 45.2427 60.3582 45.9203H58.8043C56.3298 45.9203 54.2091 47.7714 53.8716 50.2261C53.1152 55.7188 52.8496 61.3153 53.0819 66.86C53.1091 67.5067 53.6616 68.0081 54.3018 67.9817C54.9485 67.9547 55.4509 67.4084 55.4237 66.7619C55.1973 61.3564 55.4562 55.9005 56.1935 50.5456C56.3726 49.245 57.4949 48.2641 58.8045 48.2641H72.564C73.8735 48.2641 74.9959 49.245 75.1749 50.5455C75.3555 51.8591 75.504 53.1759 75.627 54.4945C74.733 54.1723 73.7846 54.0056 72.8123 54.0056C68.2357 54.0056 64.5124 57.7289 64.5124 62.3056C64.5124 66.8814 68.2357 70.6039 72.8123 70.6039C73.8273 70.6039 74.8152 70.4228 75.743 70.0723C75.6044 71.8434 75.4173 73.6117 75.1749 75.3745C74.9959 76.6753 73.8735 77.6562 72.564 77.6562Z" fill="#3BB77E"/>
</g>
</g>
</g>
<defs>
<clipPath id="clip0_6511_10622">
<rect width="80" height="80" fill="white"/>
</clipPath>
<clipPath id="clip1_6511_10622">
<rect width="80" height="80" fill="white"/>
</clipPath>
</defs>
</svg>
