<svg width="80" height="80" viewBox="0 0 80 80" fill="none" xmlns="http://www.w3.org/2000/svg">
<g clip-path="url(#clip0_6511_10652)">
<path d="M29 53C39.4934 53 48 44.9411 48 35C48 25.0589 39.4934 17 29 17C18.5066 17 10 25.0589 10 35C10 44.9411 18.5066 53 29 53Z" fill="#FDC040"/>
<path d="M29.2251 54.4914C40.6509 54.4914 49.9464 45.893 49.9464 35.3239C49.9464 24.7548 40.6508 16.1562 29.2251 16.1562C17.7994 16.1562 8.50391 24.7548 8.50391 35.3239C8.50391 45.893 17.7994 54.4914 29.2251 54.4914ZM29.2251 18.5023C39.3573 18.5023 47.6004 26.0484 47.6004 35.3239C47.6004 44.5993 39.3572 52.1455 29.2251 52.1455C19.093 52.1455 10.8499 44.5993 10.8499 35.3239C10.8499 26.0484 19.093 18.5023 29.2251 18.5023Z" fill="#3BB77E"/>
<path d="M35.5703 32.3497C35.5703 34.2552 37.1205 35.8055 39.0261 35.8055C40.9316 35.8055 42.4818 34.2552 42.4818 32.3497C42.4818 30.4443 40.9316 28.894 39.0261 28.894C37.1205 28.894 35.5703 30.4443 35.5703 32.3497ZM39.026 31.2401C39.6378 31.2401 40.1356 31.7379 40.1356 32.3497C40.1356 32.9616 39.6378 33.4594 39.026 33.4594C38.414 33.4594 37.9161 32.9616 37.9161 32.3497C37.9161 31.7379 38.4141 31.2401 39.026 31.2401Z" fill="#3BB77E"/>
<path d="M33.4324 30.0824C35.3378 30.0824 36.8881 28.5321 36.8881 26.6267C36.8881 24.7212 35.3378 23.1709 33.4324 23.1709C31.5269 23.1709 29.9766 24.7212 29.9766 26.6267C29.9766 28.5321 31.5269 30.0824 33.4324 30.0824ZM33.4324 25.5168C34.0442 25.5168 34.542 26.0147 34.542 26.6265C34.542 27.2384 34.0442 27.7362 33.4324 27.7362C32.8205 27.7362 32.3227 27.2384 32.3227 26.6265C32.3227 26.0147 32.8205 25.5168 33.4324 25.5168Z" fill="#3BB77E"/>
<path d="M19.4244 35.8055C21.33 35.8055 22.8804 34.2552 22.8804 32.3497C22.8804 30.4443 21.33 28.894 19.4244 28.894C17.519 28.894 15.9688 30.4443 15.9688 32.3497C15.9688 34.2552 17.519 35.8055 19.4244 35.8055ZM19.4244 31.2401C20.0364 31.2401 20.5343 31.7379 20.5343 32.3497C20.5343 32.9616 20.0364 33.4594 19.4244 33.4594C18.8126 33.4594 18.3148 32.9616 18.3148 32.3497C18.3148 31.7379 18.8126 31.2401 19.4244 31.2401Z" fill="#3BB77E"/>
<path d="M25.0183 30.0824C26.9237 30.0824 28.474 28.5321 28.474 26.6267C28.474 24.7212 26.9237 23.1709 25.0183 23.1709C23.1128 23.1709 21.5625 24.7212 21.5625 26.6267C21.5625 28.5321 23.1128 30.0824 25.0183 30.0824ZM25.0183 25.5168C25.6301 25.5168 26.1279 26.0147 26.1279 26.6265C26.1279 27.2384 25.6301 27.7362 25.0183 27.7362C24.4064 27.7362 23.9086 27.2384 23.9086 26.6265C23.9086 26.0147 24.4064 25.5168 25.0183 25.5168Z" fill="#3BB77E"/>
<path d="M23.3017 34.7692C23.1387 35.536 22.7031 36.2373 22.042 36.7974C20.5571 38.0552 19.7811 39.8926 19.9128 41.8384C20.118 44.8693 22.5605 47.2889 25.5943 47.4664C26.5948 47.5246 27.599 47.3355 28.4993 46.9184C28.9541 46.7077 29.4973 46.7077 29.9521 46.9184C30.7457 47.2861 31.6201 47.4767 32.5013 47.4767C32.6199 47.4767 32.7387 47.4733 32.8573 47.4664C35.891 47.2887 38.3334 44.8692 38.5386 41.8383C38.6703 39.8924 37.8942 38.055 36.4095 36.7974C35.7484 36.2373 35.3128 35.536 35.15 34.7693C34.8671 33.4382 34.1618 32.2681 33.1103 31.3855C30.8955 29.5264 27.5557 29.5264 25.341 31.3855C24.2897 32.2683 23.5846 33.4383 23.3017 34.7692ZM26.8495 33.1823C28.2041 32.0451 30.2472 32.0451 31.6018 33.1823C32.2487 33.7252 32.682 34.4426 32.8549 35.2568C33.1269 36.5365 33.8315 37.6883 34.8929 38.5874C35.803 39.3583 36.2786 40.4855 36.1977 41.6798C36.0721 43.5348 34.5771 45.0156 32.72 45.1243C32.0965 45.1607 31.4964 45.0483 30.9381 44.7896C30.3939 44.5375 29.8098 44.4115 29.2256 44.4115C28.6415 44.4115 28.0571 44.5376 27.513 44.7896C26.9548 45.0483 26.355 45.161 25.7313 45.1243C23.8741 45.0156 22.3791 43.5348 22.2535 41.68C22.1726 40.4855 22.6483 39.3583 23.5584 38.5874C24.6197 37.6884 25.3245 36.5367 25.5964 35.2568C25.7696 34.4427 26.2028 33.7253 26.8495 33.1823Z" fill="#3BB77E"/>
<path d="M75.3783 62.801C77.8696 59.6224 79.2406 55.6681 79.2406 51.616C79.2406 41.6044 71.0955 33.4592 61.0838 33.4592C59.2122 33.4592 57.3835 33.7405 55.6268 34.2947C55.5004 28.4952 55.1997 22.7034 54.7228 16.9426C54.5523 14.8963 54.9988 12.8999 56.0142 11.1692C57.3941 8.81548 58.6299 5.60031 56.6792 3.6495C55.8431 2.814 53.6996 1.60282 44.7765 0.73478C39.2067 0.193001 33.0906 0 29.224 0C25.3574 0 19.2413 0.193001 13.6713 0.734936C4.74818 1.60297 2.60483 2.81415 1.76839 3.64997C-0.182109 5.60031 1.05363 8.81548 2.43373 11.1697C3.44894 12.9001 3.89547 14.8964 3.72483 16.9423C3.65867 17.7334 3.59314 18.5756 3.51901 19.5932C3.47177 20.2393 3.9574 20.8014 4.6035 20.8485C5.24976 20.8959 5.81172 20.4101 5.85879 19.764C5.93246 18.755 5.99721 17.9205 6.06274 17.1377C6.27373 14.6068 5.7185 12.1325 4.45742 9.98272C4.3933 9.87324 4.33324 9.7661 4.27349 9.65912C7.82477 8.16375 19.4221 7.18858 29.2241 7.18858C32.955 7.18858 38.8753 7.37251 44.302 7.88848C50.295 8.45842 52.9758 9.16676 54.171 9.66506C54.1123 9.77001 54.0535 9.87511 53.9905 9.98256C52.7293 12.1325 52.1739 14.6066 52.3847 17.137C53.6009 31.8292 53.6649 46.7252 52.5819 61.4322C50.0651 61.4316 47.5478 61.4514 45.0438 61.4924C44.7224 57.5019 41.3723 54.3532 37.3005 54.3532C33.0169 54.3532 29.5319 57.8382 29.5319 62.1218C29.5319 63.9933 30.202 65.7778 31.4024 67.1767C31.1021 67.5266 30.8351 67.9005 30.6035 68.294C23.5869 68.3455 16.4789 68.003 9.46591 67.2721C7.6324 67.0821 6.19271 65.6055 6.04257 63.7604C4.97308 50.7091 4.80902 37.4696 5.5549 24.4095C5.59181 23.7627 5.09742 23.2084 4.4507 23.1714C3.80413 23.1348 3.24968 23.6289 3.21261 24.2756C2.46047 37.4438 2.62595 50.7927 3.70419 63.951C3.94567 66.921 6.26716 69.2989 9.22333 69.6053C15.858 70.2968 22.5761 70.6462 29.2266 70.646C29.3835 70.646 29.5401 70.6438 29.6969 70.6434C29.5892 71.1609 29.5318 71.6922 29.5318 72.2313C29.5318 76.5149 33.0167 79.9998 37.3003 79.9998C41.3721 79.9998 44.7222 76.8513 45.0436 72.8607C49.9774 72.9417 54.9619 72.9417 59.8944 72.8607C60.2158 76.8511 63.5661 79.9998 67.6379 79.9998C68.8879 79.9998 70.1319 79.6953 71.2353 79.119C71.8096 78.8192 72.032 78.1105 71.7322 77.5362C71.4321 76.9619 70.7234 76.7393 70.1494 77.0395C69.3688 77.447 68.5238 77.6538 67.6379 77.6538C64.6479 77.6538 62.2153 75.2213 62.2153 72.2313C62.2153 72.0956 62.2225 71.9476 62.2379 71.7656C62.2659 71.4346 62.1522 71.1073 61.9251 70.8648C61.698 70.6224 61.379 70.4876 61.0466 70.494C55.3558 70.6027 49.5839 70.6027 43.8917 70.494C43.5613 70.4877 43.2405 70.6224 43.0132 70.8648C42.7861 71.1073 42.6724 71.4346 42.7004 71.7656C42.7157 71.9464 42.7229 72.0945 42.7229 72.2313C42.7229 75.2213 40.2904 77.6538 37.3005 77.6538C34.3105 77.6538 31.878 75.2213 31.878 72.2313C31.878 70.6255 32.5855 69.1105 33.8194 68.0748C34.0848 67.8519 34.2383 67.523 34.2383 67.1764C34.2383 66.8298 34.085 66.5009 33.8194 66.278C32.5855 65.2423 31.878 63.7274 31.878 62.1214C31.878 59.1315 34.3105 56.699 37.3005 56.699C40.2904 56.699 42.7229 59.1315 42.7229 62.1214C42.7229 62.2583 42.7157 62.4064 42.7004 62.5872C42.6724 62.9182 42.7861 63.2455 43.0132 63.4879C43.2405 63.7304 43.5609 63.866 43.8917 63.8588C49.5837 63.7502 55.3556 63.7502 61.0466 63.8588C61.3793 63.866 61.698 63.7304 61.9251 63.4879C62.1522 63.2455 62.2659 62.9182 62.2379 62.5872C62.2225 62.4052 62.2153 62.2572 62.2153 62.1214C62.2153 59.1315 64.6479 56.699 67.6379 56.699C70.6286 56.699 73.062 59.1315 73.062 62.1214C73.062 63.7277 72.3541 65.2425 71.1194 66.2775C70.8537 66.5004 70.7001 66.8295 70.7001 67.1764C70.7001 67.5233 70.8535 67.8524 71.1194 68.0752C72.3541 69.1103 73.062 70.6252 73.062 72.2313C73.062 72.9161 72.9362 73.5831 72.6881 74.2137C72.4509 74.8167 72.7476 75.4975 73.3504 75.7347C73.9533 75.9718 74.6343 75.6753 74.8714 75.0725C75.2273 74.1673 75.408 73.2115 75.408 72.2315C75.408 70.3596 74.7376 68.5751 73.5366 67.1765C74.5916 65.9485 75.2367 64.4223 75.3783 62.801ZM29.2243 4.84239C29.0121 4.84239 9.6514 4.87617 3.32554 7.53674C3.00241 6.49478 3.02556 5.71073 3.4272 5.30909C3.74454 4.99191 5.4376 3.89302 13.8985 3.06987C19.385 2.53623 25.4126 2.34604 29.224 2.34604C33.0354 2.34604 39.063 2.53623 44.5494 3.06987C53.0103 3.89302 54.7034 4.99191 55.0204 5.30878C55.4224 5.71073 55.4457 6.49462 55.1226 7.53658C48.7965 4.87632 29.4367 4.84239 29.2243 4.84239ZM67.6382 54.3531C63.5664 54.3531 60.2161 57.5016 59.8947 61.4922C58.2458 61.4652 56.5904 61.4506 54.9336 61.4416C55.5322 53.2487 55.7793 44.9985 55.6701 36.7567C57.3992 36.1251 59.2166 35.8053 61.0838 35.8053C69.8019 35.8053 76.8946 42.898 76.8946 51.616C76.8946 54.3243 76.1919 56.983 74.8848 59.324C73.7592 56.4192 70.9363 54.3531 67.6382 54.3531Z" fill="#3BB77E"/>
</g>
<defs>
<clipPath id="clip0_6511_10652">
<rect width="80" height="80" fill="white"/>
</clipPath>
</defs>
</svg>
