<svg width="80" height="80" viewBox="0 0 80 80" fill="none" xmlns="http://www.w3.org/2000/svg">
<g clip-path="url(#clip0_6511_10638)">
<mask id="mask0_6511_10638" style="mask-type:luminance" maskUnits="userSpaceOnUse" x="0" y="0" width="80" height="80">
<path d="M80 0H0V80H80V0Z" fill="white"/>
</mask>
<g mask="url(#mask0_6511_10638)">
<path d="M22.5 57.0001C20.1 56.6001 18.8333 57.5001 18.5 58.0001L18 58.5001C17.5 59.1668 16.5 60.6001 16.5 61.0001V64.0001C16.5 64.5001 16.5 66.0001 17 67.0001C17.5 68.0001 17.5 68.5001 18 69.0001C18.5 69.5001 19 70.0001 19.5 70.0001C20 70.0001 22.5 70.5001 23 70.5001H28.5C30 70.5001 30.5 70.0001 31.5 70.0001C32.5 70.0001 33.5 69.5001 33.5 69.0001C33.5 68.5001 34 68.0001 34.5 67.5001C35 67.0001 34.5 66.0001 35 65.1755C35.5 64.3508 35 64.0001 35 63.5001V61.0001C35 60.5001 34.5 60.0001 34.5 59.5001C34.5 59.0001 33.5 58.5001 33 58.0001C32.6 57.6001 31.5 57.1668 31 57.0001C29.1667 57.1668 24.9 57.4001 22.5 57.0001Z" fill="#FDC040"/>
<path d="M67 31C59.8 33.8 46 32.1667 40 31L38.5 32L36 36L34.5 39.5C36.1 39.9 40.8333 44 43 46L44.5 49C48.1 49.4 49 52.5 49 54L49.5 64.5C56.3 66.5 72 63.3333 79 61.5C79.4 60.7 77.8333 52.1667 77 48C75 42 69.5 34.1667 67 31Z" fill="#FDC040"/>
<path d="M74.0954 38.918C71.7073 34.5533 69.3333 31.7328 68.4782 30.7779V24.3357L79.5723 15.2262C79.8364 15.0091 79.9928 14.6877 80.0002 14.3458C80.0077 14.0039 79.8653 13.676 79.6108 13.4478L71.2167 5.92413C70.7348 5.49223 69.9938 5.53286 69.5618 6.0146C69.1297 6.49649 69.1704 7.23746 69.6523 7.66951L77.0293 14.2816L68.4786 21.3027V16.51C68.4786 15.8628 67.9541 15.338 67.3067 15.338C66.6593 15.338 66.1348 15.8628 66.1348 16.51L66.1342 30.2444C57.7665 31.5987 49.2977 31.5985 40.9301 30.2441V16.51C40.9301 15.8628 40.4055 15.338 39.7581 15.338C39.1108 15.338 38.5862 15.8628 38.5862 16.51V21.3031L30.0349 14.2816L39.1576 6.10366C40.4997 4.90018 42.2329 4.4 43.9008 4.59814C44.2442 6.07351 45.033 9.16816 46.2443 12.2511C48.2347 17.317 50.5564 20.3456 53.1446 21.2523C53.2701 21.2962 53.401 21.3183 53.532 21.3183C53.6629 21.3183 53.794 21.2962 53.9193 21.2523C56.5075 20.3456 58.8293 17.317 60.8202 12.2512C62.0295 9.1741 62.8173 6.08757 63.1622 4.60861C64.1947 4.48516 65.261 4.62329 66.2523 5.04769C66.8478 5.30254 67.5363 5.02643 67.791 4.43157C68.0458 3.83654 67.7699 3.14777 67.175 2.89307C64.1644 1.60411 60.6546 2.19617 58.2325 4.40078L57.151 5.3852C55.0876 7.26402 51.9771 7.26402 49.9145 5.3852L48.8332 4.40078C45.6399 1.4938 40.8075 1.47583 37.5929 4.35875L27.4533 13.4481C27.1986 13.6763 27.0564 14.0044 27.0639 14.3461C27.0712 14.688 27.2276 15.0094 27.4917 15.2265L38.5859 24.3361V30.7772C37.8176 31.6323 35.8431 33.9672 33.7387 37.5477C31.9564 36.5979 30.0715 35.6602 28.1622 34.711C26.4937 33.8813 24.8132 33.0456 23.2 32.197C24.7766 30.2227 25.9928 27.9879 26.5257 25.368C27.3401 21.3642 26.1488 17.7878 23.2573 15.5557C20.5161 13.4397 16.7411 12.968 13.8634 14.3819C12.3208 15.1398 9.73304 17.1067 9.73304 21.7638C9.73304 24.7117 11.6052 27.4985 15.4567 30.2836C16.6614 31.1548 18.0159 31.9985 19.4575 32.8219C17.6702 34.5799 15.6191 36.1446 13.6813 37.6225C9.50944 40.8045 5.55131 43.8259 5.44896 47.8967C2.89668 48.5086 0.927381 50.6369 0.584554 53.3177C-0.194852 59.421 -0.194852 65.6103 0.584554 71.714C0.97832 74.7915 3.5167 77.1434 6.62057 77.3061C12.844 77.6306 19.1111 77.7928 25.3784 77.7928C31.6455 77.7928 37.9131 77.6305 44.1366 77.3061C47.2412 77.1433 49.7788 74.7912 50.1707 71.714C50.4042 69.8892 50.5662 68.0567 50.6601 66.2211C51.6136 66.2497 52.575 66.265 53.532 66.265C68.831 66.265 78.8126 62.6854 79.2301 62.533C79.6925 62.3641 80.0002 61.9244 80.0002 61.4322C80.0005 51.744 76.7894 43.8415 74.0954 38.918ZM48.3366 7.11745C51.298 9.81584 55.7661 9.81584 58.7293 7.11777L59.8106 6.13351C60.0303 5.9335 60.2627 5.75209 60.505 5.58927C60.098 7.14183 59.4736 9.27082 58.6393 11.3935C56.6858 16.3645 54.8414 18.2272 53.5324 18.8758C52.2236 18.2272 50.3792 16.3645 48.4261 11.3935C47.592 9.27051 46.9675 7.14011 46.5604 5.58692C46.8017 5.7499 47.0342 5.93178 47.2558 6.13335L48.3366 7.11745ZM12.0775 21.7631C12.0775 19.2165 13.0526 17.3913 14.8975 16.4848C15.6691 16.1057 16.5508 15.9218 17.4584 15.9218C18.975 15.9218 20.5632 16.4357 21.8257 17.4103C23.0934 18.3888 25.0913 20.6631 24.2296 24.9C23.7572 27.2226 22.6015 29.2431 21.0933 31.0546C16.0283 28.2162 12.0775 25.2028 12.0775 21.7631ZM6.74277 50.0669C8.83175 49.9585 10.9215 49.8678 12.9541 49.7975C13.601 49.775 14.1071 49.2327 14.0846 48.5858C14.0621 47.9387 13.5238 47.4346 12.8729 47.4551C11.2153 47.5124 9.51975 47.5838 7.81781 47.6667C8.11969 44.8144 11.3839 42.3222 15.1033 39.4856C17.2882 37.8189 19.6077 36.0498 21.6013 34.0011C23.3972 34.9582 25.2723 35.8907 27.119 36.809C28.9676 37.7283 30.8311 38.6551 32.5985 39.5981C31.4375 41.8039 30.2957 44.3709 29.3507 47.2629C25.4084 47.219 21.4726 47.236 17.5662 47.3218C16.919 47.336 16.406 47.872 16.4202 48.5192C16.4344 49.1664 16.9677 49.6847 17.6174 49.665C26.3537 49.4733 35.2351 49.6086 44.015 50.0669C45.9863 50.1691 47.5977 51.6607 47.8464 53.6142C48.011 54.9004 48.1375 56.1906 48.2303 57.483C48.1356 58.7799 48.007 60.0675 47.8464 61.3131C47.5978 63.2651 45.986 64.7559 44.0131 64.8583C41.3596 64.9969 38.6939 65.1048 36.0658 65.1837C36.1221 63.5288 36.0856 61.8671 35.953 60.2215C35.7738 57.9958 33.9682 56.2259 31.7534 56.1048C27.9613 55.8973 24.1158 55.8971 20.3246 56.1048C18.1096 56.2259 16.3042 57.9958 16.1249 60.2215C15.9913 61.8796 15.9552 63.5542 16.0133 65.2217C12.9271 65.1395 9.8157 65.0192 6.74277 64.8583C4.7705 64.7561 3.15856 63.2652 2.91012 61.3127C2.75292 60.0817 2.62401 58.7983 2.52588 57.497C2.6187 56.2 2.74527 54.9051 2.91012 53.6142C3.15981 51.661 4.77175 50.1691 6.74277 50.0669ZM34.6609 40.735C38.4575 42.9076 41.5251 45.1803 42.5559 47.6512C38.9829 47.4806 35.3967 47.3623 31.8116 47.298C32.6564 44.8515 33.6506 42.6519 34.6609 40.735ZM33.6166 66.9979C33.531 68.0606 32.6749 68.9051 31.6253 68.9626C27.9184 69.1656 24.1596 69.1656 20.4524 68.9626C19.4028 68.9051 18.5467 68.0606 18.461 66.9979C18.2849 64.8122 18.2849 62.5955 18.461 60.4098C18.5467 59.3471 19.4028 58.5025 20.4525 58.445C22.3059 58.3436 24.1724 58.2929 26.0388 58.2929C27.9053 58.2929 29.7718 58.3436 31.6253 58.445C32.6749 58.5025 33.531 59.3471 33.6166 60.4098C33.7927 62.5955 33.7927 64.8122 33.6166 66.9979ZM44.0147 74.9649C31.6487 75.6096 19.109 75.6096 6.74355 74.9649C4.77222 74.8615 3.15981 73.3691 2.91012 71.4163C2.65167 69.3922 2.48385 67.3582 2.4026 65.3213C3.4942 66.4157 4.97817 67.1138 6.62089 67.199C9.78679 67.3649 12.9941 67.4881 16.1731 67.5707C16.5168 69.6127 18.2389 71.189 20.3244 71.303C22.2204 71.4068 24.1297 71.4587 26.0388 71.4587C27.948 71.4587 29.8574 71.4068 31.7531 71.303C33.8515 71.1882 35.5814 69.5933 35.9102 67.5334C38.6282 67.4535 41.3884 67.3426 44.1347 67.199C45.7784 67.1138 47.263 66.4152 48.3547 65.3205C48.2733 67.3577 48.1052 69.3923 47.8463 71.4168C47.5975 73.3694 45.986 74.8615 44.0147 74.9649ZM73.8104 61.637C73.5693 58.1139 73.1238 54.6036 72.4816 51.1826C72.3622 50.5465 71.7503 50.1278 71.1136 50.2471C70.4775 50.3664 70.0585 50.979 70.1781 51.6151C70.8248 55.0607 71.265 58.6001 71.4937 62.1503C70.5914 62.3352 69.5682 62.5272 68.4358 62.7141C68.2941 58.0011 67.7911 53.3083 66.9351 48.7447C66.8158 48.1085 66.2032 47.6899 65.5673 47.8088C64.9311 47.9282 64.5122 48.5406 64.6316 49.1767C65.4821 53.7124 65.9757 58.3799 66.1018 63.0666C62.6075 63.5462 58.3401 63.9209 53.5321 63.9209C52.6025 63.9209 51.6686 63.9062 50.7423 63.8785C50.8086 60.3515 50.619 56.8205 50.171 53.318C49.8196 50.5583 47.7438 48.3845 45.0818 47.8471C44.2214 44.2661 40.5447 41.3894 35.8056 38.6849C37.6787 35.5146 39.4311 33.3761 40.1963 32.4987C44.6227 33.2353 49.0777 33.6047 53.5327 33.6047C57.9874 33.6047 62.4421 33.2355 66.8684 32.4989C67.7478 33.5045 69.9246 36.1634 72.0774 40.1137C74.544 44.6398 77.4698 51.8138 77.6477 60.5895C76.8855 60.83 75.5786 61.2148 73.8104 61.637Z" fill="#3BB77E"/>
<path d="M30.7412 60.2226C29.1758 60.1494 27.5937 60.1123 26.0385 60.1123C24.4831 60.1123 22.9009 60.1494 21.3355 60.2226C20.7377 60.2506 20.257 60.7245 20.2205 61.3221C20.1244 62.9024 20.1244 64.5053 20.2205 66.0858C20.2569 66.6834 20.7377 67.1573 21.3355 67.1853C22.8996 67.2584 24.482 67.2956 26.0385 67.2956C27.5948 67.2956 29.1771 67.2585 30.7412 67.1853C31.339 67.1573 31.8197 66.6834 31.8562 66.0858C31.9523 64.5053 31.9523 62.9026 31.8562 61.3221C31.8198 60.7247 31.3392 60.2506 30.7412 60.2226ZM29.5657 64.8881C27.2101 64.9727 24.8666 64.9727 22.5113 64.8881C22.4862 64.0998 22.4862 63.3082 22.5113 62.5199C24.8681 62.4352 27.2089 62.4352 29.5657 62.5199C29.5908 63.3082 29.5908 64.0998 29.5657 64.8881Z" fill="#3BB77E"/>
</g>
</g>
<defs>
<clipPath id="clip0_6511_10638">
<rect width="80" height="80" fill="white"/>
</clipPath>
</defs>
</svg>
