<svg width="18" height="24" viewBox="0 0 18 24" fill="none" xmlns="http://www.w3.org/2000/svg">
<path d="M18 24H16V18.957C15.9992 18.173 15.6874 17.4214 15.1331 16.867C14.5787 16.3126 13.827 16.0008 13.043 16H4.957C4.17299 16.0008 3.42133 16.3126 2.86696 16.867C2.31259 17.4214 2.00079 18.173 2 18.957V24H0V18.957C0.00158 17.6428 0.52435 16.3829 1.45362 15.4536C2.38289 14.5244 3.6428 14.0016 4.957 14H13.043C14.3572 14.0016 15.6171 14.5244 16.5464 15.4536C17.4757 16.3829 17.9984 17.6428 18 18.957V24Z" fill="#253D4E"/>
<path d="M8.99996 12C7.81336 12 6.65326 11.6481 5.66658 10.9888C4.67988 10.3295 3.91085 9.39246 3.45672 8.2961C3.0026 7.19974 2.88378 5.99334 3.11529 4.82946C3.3468 3.66557 3.91824 2.59647 4.75736 1.75736C5.59647 0.918244 6.66556 0.346802 7.82946 0.115291C8.99336 -0.11622 10.1998 0.00259981 11.2961 0.456726C12.3925 0.910854 13.3296 1.67988 13.9889 2.66658C14.6481 3.65327 15 4.81331 15 6C14.9984 7.59081 14.3658 9.11601 13.2409 10.2409C12.1161 11.3658 10.5909 11.9984 8.99996 12ZM8.99996 2C8.20886 2 7.43556 2.23459 6.77776 2.67412C6.11992 3.11365 5.60723 3.73836 5.30448 4.46927C5.00173 5.20017 4.92252 6.00444 5.07686 6.78036C5.2312 7.55628 5.61216 8.26902 6.17157 8.82843C6.73096 9.38784 7.44376 9.76878 8.21966 9.92318C8.99556 10.0775 9.79986 9.99828 10.5308 9.69548C11.2617 9.39277 11.8864 8.88008 12.3259 8.22228C12.7654 7.56448 13 6.79112 13 6C13 4.93913 12.5786 3.92172 11.8285 3.17157C11.0783 2.42143 10.0609 2 8.99996 2Z" fill="#253D4E"/>
</svg>
