<svg width="15" height="14" viewBox="0 0 15 14" fill="none" xmlns="http://www.w3.org/2000/svg">
<path d="M13.15 0H1.9C1.36667 0 0.916667 0.183333 0.55 0.55C0.183333 0.916666 0 1.36667 0 1.9V13.75H15V1.9C15 1.36667 14.8167 0.916666 14.45 0.55C14.0833 0.183333 13.6333 0 13.1 0H13.15ZM1.9 1.25H13.15C13.3167 1.25 13.4583 1.31667 13.575 1.45C13.6917 1.58333 13.75 1.73333 13.75 1.9V2.3L8.85 7.25C8.48333 7.61667 8.03333 7.8 7.5 7.8C6.96667 7.8 6.51667 7.61667 6.15 7.25L1.25 2.3V1.9C1.25 1.73333 1.30833 1.58333 1.425 1.45C1.54167 1.31667 1.68333 1.25 1.85 1.25H1.9ZM1.25 12.5V4.1L5.3 8.1C5.9 8.73333 6.63333 9.05 7.5 9.05C8.36667 9.05 9.1 8.73333 9.7 8.1L13.75 4.1V12.5H1.25Z" fill="#3BB77E"/>
</svg>
