<svg width="15" height="15" viewBox="0 0 15 15" fill="none" xmlns="http://www.w3.org/2000/svg">
<path d="M15 1.85H2.65V1.65C2.58333 1.18333 2.375 0.791666 2.025 0.474999C1.675 0.158333 1.25 0 0.75 0H0V1.25H0.75C0.916667 1.25 1.05833 1.3 1.175 1.4C1.29167 1.5 1.36667 1.63333 1.4 1.8L2.4 10.2C2.43333 10.7 2.625 11.1 2.975 11.4C3.325 11.7 3.75 11.8667 4.25 11.9H12.5V10.6H4.25C4.08333 10.6 3.94167 10.55 3.825 10.45C3.70833 10.35 3.63333 10.2167 3.6 10.05L3.55 9.35H13.65L15 1.85ZM12.6 8.1H3.4L2.8 3.1H13.5L12.6 8.1ZM3.15 13.75C3.11667 14.0833 3.225 14.375 3.475 14.625C3.725 14.875 4.025 15 4.375 15C4.725 15 5.01667 14.875 5.25 14.625C5.48333 14.375 5.60833 14.0833 5.625 13.75C5.64167 13.4167 5.525 13.125 5.275 12.875C5.025 12.625 4.725 12.5 4.375 12.5C4.025 12.5 3.73333 12.625 3.5 12.875C3.26667 13.125 3.15 13.4167 3.15 13.75ZM9.4 13.75C9.36667 14.0833 9.475 14.375 9.725 14.625C9.975 14.875 10.275 15 10.625 15C10.975 15 11.2667 14.875 11.5 14.625C11.7333 14.375 11.8583 14.0833 11.875 13.75C11.8917 13.4167 11.775 13.125 11.525 12.875C11.275 12.625 10.975 12.5 10.625 12.5C10.275 12.5 9.98333 12.625 9.75 12.875C9.51667 13.125 9.4 13.4167 9.4 13.75Z" fill="#29A56C"/>
</svg>
