<svg width="13" height="16" viewBox="0 0 13 16" fill="none" xmlns="http://www.w3.org/2000/svg">
<path d="M6.3 15.0498L5.85 14.6998C4.75 13.7665 3.7 12.7165 2.7 11.5498C0.9 9.4498 0 7.6998 0 6.2998C0 5.16647 0.283333 4.11647 0.85 3.1498C1.41667 2.18314 2.18333 1.41647 3.15 0.849805C4.11667 0.283138 5.16667 -0.000195503 6.3 -0.000195503C7.43333 -0.000195503 8.48333 0.283138 9.45 0.849805C10.4167 1.41647 11.1833 2.18314 11.75 3.1498C12.3167 4.11647 12.6 5.16647 12.6 6.2998C12.6 7.6998 11.7 9.4498 9.9 11.5498C8.93333 12.6831 7.88333 13.7331 6.75 14.6998L6.3 15.0498ZM6.3 1.3498C5.4 1.3498 4.575 1.5748 3.825 2.0248C3.075 2.4748 2.475 3.0748 2.025 3.8248C1.575 4.5748 1.35 5.40814 1.35 6.3248C1.35 7.24147 1.96667 8.46647 3.2 9.9998C4.06667 11.0998 5.1 12.1831 6.3 13.2498C7.5 12.1831 8.53333 11.0998 9.4 9.9998C10.6333 8.46647 11.25 7.24147 11.25 6.3248C11.25 5.40814 11.025 4.5748 10.575 3.8248C10.125 3.0748 9.525 2.4748 8.775 2.0248C8.025 1.5748 7.2 1.3498 6.3 1.3498ZM6.3 8.7998C5.6 8.7998 5.00833 8.55814 4.525 8.0748C4.04167 7.59147 3.8 6.9998 3.8 6.2998C3.8 5.5998 4.04167 5.00814 4.525 4.5248C5.00833 4.04147 5.6 3.7998 6.3 3.7998C7 3.7998 7.59167 4.04147 8.075 4.5248C8.55833 5.00814 8.8 5.5998 8.8 6.2998C8.8 6.9998 8.55833 7.59147 8.075 8.0748C7.59167 8.55814 7 8.7998 6.3 8.7998ZM6.3 5.0498C5.96667 5.0498 5.675 5.1748 5.425 5.4248C5.175 5.6748 5.05 5.96647 5.05 6.2998C5.05 6.63314 5.175 6.9248 5.425 7.1748C5.675 7.4248 5.96667 7.5498 6.3 7.5498C6.63333 7.5498 6.925 7.4248 7.175 7.1748C7.425 6.9248 7.55 6.63314 7.55 6.2998C7.55 5.96647 7.425 5.6748 7.175 5.4248C6.925 5.1748 6.63333 5.0498 6.3 5.0498Z" fill="#3BB77E"/>
</svg>
