<svg width="15" height="15" viewBox="0 0 15 15" fill="none" xmlns="http://www.w3.org/2000/svg">
<path d="M7.5 0C6.13333 0 4.875 0.333333 3.725 1C2.575 1.66667 1.66667 2.575 1 3.725C0.333333 4.875 0 6.13333 0 7.5C0 8.86667 0.333333 10.125 1 11.275C1.66667 12.425 2.575 13.3333 3.725 14C4.875 14.6667 6.13333 15 7.5 15C8.86667 15 10.125 14.6667 11.275 14C12.425 13.3333 13.3333 12.425 14 11.275C14.6667 10.125 15 8.86667 15 7.5C15 6.13333 14.6667 4.875 14 3.725C13.3333 2.575 12.425 1.66667 11.275 1C10.125 0.333333 8.86667 0 7.5 0ZM7.5 13.75C6.36667 13.75 5.325 13.4667 4.375 12.9C3.425 12.3333 2.66667 11.575 2.1 10.625C1.53333 9.675 1.25 8.63333 1.25 7.5C1.25 6.36667 1.53333 5.325 2.1 4.375C2.66667 3.425 3.425 2.66667 4.375 2.1C5.325 1.53333 6.36667 1.25 7.5 1.25C8.63333 1.25 9.675 1.53333 10.625 2.1C11.575 2.66667 12.3333 3.425 12.9 4.375C13.4667 5.325 13.75 6.36667 13.75 7.5C13.75 8.63333 13.4667 9.675 12.9 10.625C12.3333 11.575 11.575 12.3333 10.625 12.9C9.675 13.4667 8.63333 13.75 7.5 13.75ZM8.75 7.5C8.75 7.8 8.65 8.06667 8.45 8.3C8.25 8.53333 8 8.675 7.7 8.725C7.4 8.775 7.125 8.725 6.875 8.575C6.625 8.425 6.44167 8.20833 6.325 7.925C6.20833 7.64167 6.20833 7.35833 6.325 7.075C6.44167 6.79167 6.63333 6.56667 6.9 6.4V3.75H8.15V6.4C8.31667 6.53333 8.45833 6.69167 8.575 6.875C8.69167 7.05833 8.75 7.26667 8.75 7.5Z" fill="#3BB77E"/>
</svg>
