<svg width="15" height="13" viewBox="0 0 15 13" fill="none" xmlns="http://www.w3.org/2000/svg">
<path d="M13.1448 6.5V5.6C13.1448 4.6 12.8865 3.66667 12.3698 2.8C11.8532 1.93333 11.1698 1.25 10.3198 0.75C9.46983 0.25 8.52816 0 7.49483 0C6.46149 0 5.51983 0.25 4.66983 0.75C3.81983 1.25 3.13649 1.93333 2.61983 2.8C2.10316 3.66667 1.84483 4.6 1.84483 5.6V6.5C1.17816 6.8 0.678161 7.28333 0.344828 7.95C0.0114943 8.61667 -0.0801724 9.30833 0.0698276 10.025C0.219828 10.7417 0.578161 11.3333 1.14483 11.8C1.71149 12.2667 2.37816 12.5 3.14483 12.5H4.39483V6.25H3.14483V5.6C3.14483 4.83333 3.33649 4.11667 3.71983 3.45C4.10316 2.78333 4.62816 2.25 5.29483 1.85C5.96149 1.45 6.69483 1.25 7.49483 1.25C8.29483 1.25 9.02816 1.45 9.69483 1.85C10.3615 2.25 10.8948 2.78333 11.2948 3.45C11.6948 4.11667 11.8948 4.85 11.8948 5.65V6.25H10.6448V12.5H11.8948C12.6282 12.5 13.2782 12.2667 13.8448 11.8C14.4115 11.3333 14.7698 10.7417 14.9198 10.025C15.0698 9.30833 14.9782 8.61667 14.6448 7.95C14.3115 7.28333 13.8115 6.8 13.1448 6.5ZM3.14483 11.25C2.61149 11.25 2.16149 11.0667 1.79483 10.7C1.42816 10.3333 1.24483 9.89167 1.24483 9.375C1.24483 8.85833 1.42816 8.41667 1.79483 8.05C2.16149 7.68333 2.59483 7.5 3.09483 7.5L3.14483 11.25ZM11.8948 11.25V7.5C12.3948 7.5 12.8282 7.68333 13.1948 8.05C13.5615 8.41667 13.7448 8.85833 13.7448 9.375C13.7448 9.89167 13.5615 10.3333 13.1948 10.7C12.8282 11.0667 12.3782 11.25 11.8448 11.25H11.8948Z" fill="#3BB77E"/>
</svg>
