<svg width="18" height="20" viewBox="0 0 18 20" fill="none" xmlns="http://www.w3.org/2000/svg">
<path d="M12.417 3.35583C11.417 2.50833 10.387 1.62916 9.34453 0.590003L8.75033 0L8.167 0.590833C6.29033 2.4725 5.40366 5.36166 5.01866 7.095C4.72397 6.63825 4.5053 6.13674 4.37116 5.61L4.01866 4.24916L2.99366 5.2125C1.19783 6.89833 0.000326743 8.57083 0.000326743 11.2491C-0.0164433 13.181 0.612757 15.0631 1.78801 16.5965C2.96325 18.1298 4.61714 19.2266 6.487 19.7125C7.05039 19.8495 7.62542 19.9332 8.2045 19.9625C8.38555 19.9854 8.56783 19.9973 8.75033 19.9983C8.84613 19.9983 8.93953 19.99 9.03283 19.9841C11.3029 19.9158 13.4571 18.9656 15.038 17.335C16.6189 15.7044 17.5022 13.5219 17.5003 11.2508C17.5003 7.6725 15.1445 5.6725 12.417 3.35583ZM8.91703 18.3175C8.83363 18.3175 8.75033 18.3258 8.66199 18.325C7.91193 18.302 7.20015 17.9884 6.67704 17.4504C6.15394 16.9124 5.86047 16.192 5.85866 15.4416C5.85866 14.385 6.42533 13.8583 7.70783 12.7666C8.03116 12.4916 8.38283 12.1925 8.75283 11.85C9.07703 12.1441 9.39203 12.4108 9.68283 12.6583C10.9711 13.7516 11.6436 14.3725 11.6436 15.4391C11.6422 16.1762 11.3591 16.8849 10.8522 17.42C10.3452 17.9551 9.65293 18.2762 8.91703 18.3175ZM13.1003 16.8416L13.0836 16.8533C13.2332 16.3976 13.3097 15.9212 13.3103 15.4416C13.3103 13.5541 12.072 12.5025 10.762 11.39C10.2978 10.9966 9.81863 10.59 9.34033 10.1116L8.75033 9.52254L8.16116 10.1116C7.62116 10.6508 7.09283 11.1008 6.62699 11.4975C5.32033 12.6091 4.19116 13.57 4.19116 15.4416C4.19294 15.9418 4.27741 16.4382 4.44116 16.9108C3.57371 16.2447 2.87197 15.3871 2.39074 14.405C1.90951 13.4229 1.66181 12.3428 1.667 11.2491C1.65329 9.78684 2.21928 8.3786 3.24116 7.3325C3.41718 7.6896 3.62585 8.02966 3.8645 8.34833C4.0388 8.58353 4.27811 8.76259 4.55294 8.86343C4.82777 8.96427 5.1261 8.98248 5.41116 8.91583C5.70115 8.85127 5.96641 8.70455 6.17522 8.49323C6.38404 8.2819 6.52757 8.0149 6.58866 7.72416C6.93759 5.80887 7.69226 3.99039 8.80203 2.39083C9.68113 3.22416 10.552 3.96166 11.3378 4.62916C13.9478 6.84583 15.8378 8.4475 15.8378 11.2541C15.8398 12.333 15.594 13.3979 15.1192 14.3667C14.6444 15.3355 13.9542 16.1822 13.1003 16.8416Z" fill="#3BB77E"/>
</svg>
