<svg width="35" height="30" viewBox="0 0 35 30" fill="none" xmlns="http://www.w3.org/2000/svg">
<path d="M30.6032 15.2017V13.125C30.6032 9.64406 29.2204 6.30564 26.759 3.84422C24.2975 1.38281 20.9592 0 17.4782 0C13.9972 0 10.6588 1.38281 8.19744 3.84422C5.73601 6.30564 4.35321 9.64406 4.35321 13.125V15.2017C2.82365 15.8751 1.57188 17.0537 0.807449 18.5399C0.0430221 20.0261 -0.18766 21.7297 0.154023 23.3658C0.495705 25.0018 1.38901 26.4707 2.68439 27.5267C3.97978 28.5828 5.59861 29.1617 7.26988 29.1667H10.1865V14.5833H7.26988V13.125C7.26988 10.4176 8.34539 7.82104 10.2598 5.90662C12.1743 3.99219 14.7708 2.91667 17.4782 2.91667C20.1856 2.91667 22.7821 3.99219 24.6966 5.90662C26.611 7.82104 27.6865 10.4176 27.6865 13.125V14.5833H24.7698V26.25H18.9365V29.1667H27.6865C29.3578 29.1617 30.9766 28.5828 32.272 27.5267C33.5674 26.4707 34.4607 25.0018 34.8024 23.3658C35.1441 21.7297 34.9134 20.0261 34.149 18.5399C33.3845 17.0537 32.1328 15.8751 30.6032 15.2017ZM7.26988 26.25C6.10955 26.25 4.99676 25.7891 4.17629 24.9686C3.35581 24.1482 2.89488 23.0353 2.89488 21.875C2.89488 20.7147 3.35581 19.6018 4.17629 18.7814C4.99676 17.9609 6.10955 17.5 7.26988 17.5V26.25ZM27.6865 26.25V17.5C28.8468 17.5 29.9596 17.9609 30.7801 18.7814C31.6006 19.6018 32.0615 20.7147 32.0615 21.875C32.0615 23.0353 31.6006 24.1482 30.7801 24.9686C29.9596 25.7891 28.8468 26.25 27.6865 26.25Z" fill="#253D4E"/>
</svg>
