<svg width="11" height="11" viewBox="0 0 11 11" fill="none" xmlns="http://www.w3.org/2000/svg">
<path d="M5.27344 2.55469C6.75 2.55469 7.96875 3.77344 7.96875 5.25C7.96875 6.75 6.75 7.94531 5.27344 7.94531C3.77344 7.94531 2.57812 6.75 2.57812 5.25C2.57812 3.77344 3.77344 2.55469 5.27344 2.55469ZM5.27344 7.00781C6.23438 7.00781 7.00781 6.23438 7.00781 5.25C7.00781 4.28906 6.23438 3.51562 5.27344 3.51562C4.28906 3.51562 3.51562 4.28906 3.51562 5.25C3.51562 6.23438 4.3125 7.00781 5.27344 7.00781ZM8.69531 2.46094C8.69531 2.8125 8.41406 3.09375 8.0625 3.09375C7.71094 3.09375 7.42969 2.8125 7.42969 2.46094C7.42969 2.10938 7.71094 1.82812 8.0625 1.82812C8.41406 1.82812 8.69531 2.10938 8.69531 2.46094ZM10.4766 3.09375C10.5234 3.96094 10.5234 6.5625 10.4766 7.42969C10.4297 8.27344 10.2422 9 9.63281 9.63281C9.02344 10.2422 8.27344 10.4297 7.42969 10.4766C6.5625 10.5234 3.96094 10.5234 3.09375 10.4766C2.25 10.4297 1.52344 10.2422 0.890625 9.63281C0.28125 9 0.09375 8.27344 0.046875 7.42969C0 6.5625 0 3.96094 0.046875 3.09375C0.09375 2.25 0.28125 1.5 0.890625 0.890625C1.52344 0.28125 2.25 0.09375 3.09375 0.046875C3.96094 0 6.5625 0 7.42969 0.046875C8.27344 0.09375 9.02344 0.28125 9.63281 0.890625C10.2422 1.5 10.4297 2.25 10.4766 3.09375ZM9.35156 8.34375C9.63281 7.66406 9.5625 6.02344 9.5625 5.25C9.5625 4.5 9.63281 2.85938 9.35156 2.15625C9.16406 1.71094 8.8125 1.33594 8.36719 1.17188C7.66406 0.890625 6.02344 0.960938 5.27344 0.960938C4.5 0.960938 2.85938 0.890625 2.17969 1.17188C1.71094 1.35938 1.35938 1.71094 1.17188 2.15625C0.890625 2.85938 0.960938 4.5 0.960938 5.25C0.960938 6.02344 0.890625 7.66406 1.17188 8.34375C1.35938 8.8125 1.71094 9.16406 2.17969 9.35156C2.85938 9.63281 4.5 9.5625 5.27344 9.5625C6.02344 9.5625 7.66406 9.63281 8.36719 9.35156C8.8125 9.16406 9.1875 8.8125 9.35156 8.34375Z" fill="white"/>
</svg>
