<svg width="11" height="11" viewBox="0 0 11 11" fill="none" xmlns="http://www.w3.org/2000/svg">
<path d="M9.9375 6.28125C10.2891 6.72656 10.5 7.28906 10.4766 7.875C10.4766 9.32812 9.30469 10.5 7.85156 10.5C7.26562 10.5 6.70312 10.3125 6.25781 9.96094C5.92969 10.0312 5.57812 10.0781 5.22656 10.0781C2.57812 10.0781 0.421875 7.92188 0.421875 5.25C0.421875 4.92188 0.46875 4.57031 0.539062 4.24219C0.1875 3.79688 0 3.23438 0 2.625C0 1.19531 1.17188 0 2.625 0C3.21094 0 3.77344 0.210938 4.21875 0.5625C4.54688 0.492188 4.89844 0.445312 5.25 0.445312C7.89844 0.445312 10.0547 2.60156 10.0547 5.25C10.0547 5.60156 10.0078 5.95312 9.9375 6.28125ZM5.39062 8.4375C6.67969 8.4375 8.01562 7.78125 8.01562 6.39844C8.01562 5.20312 6.84375 4.80469 5.88281 4.59375C4.75781 4.3125 4.26562 4.26562 4.26562 3.82031C4.26562 3.44531 4.64062 3.28125 5.25 3.28125C6.32812 3.28125 6.35156 4.07812 7.00781 4.07812C7.45312 4.07812 7.71094 3.72656 7.71094 3.32812C7.71094 2.53125 6.39844 2.01562 5.10938 2.01562C3.9375 2.01562 2.55469 2.53125 2.55469 3.9375C2.55469 5.46094 3.86719 5.60156 5.32031 5.97656C5.92969 6.11719 6.30469 6.1875 6.30469 6.63281C6.30469 6.98438 5.90625 7.24219 5.32031 7.24219C4.05469 7.24219 3.98438 6.1875 3.25781 6.1875C2.76562 6.1875 2.55469 6.53906 2.55469 6.91406C2.55469 7.75781 3.84375 8.4375 5.39062 8.4375Z" fill="white"/>
</svg>
