<svg width="12" height="10" viewBox="0 0 12 10" fill="none" xmlns="http://www.w3.org/2000/svg">
<path d="M10.7578 2.41406C10.7578 2.53125 10.7578 2.625 10.7578 2.74219C10.7578 6 8.29688 9.72656 3.77344 9.72656C2.36719 9.72656 1.07812 9.32812 0 8.625C0.1875 8.64844 0.375 8.67188 0.585938 8.67188C1.73438 8.67188 2.78906 8.27344 3.63281 7.61719C2.55469 7.59375 1.64062 6.89062 1.33594 5.90625C1.5 5.92969 1.64062 5.95312 1.80469 5.95312C2.01562 5.95312 2.25 5.90625 2.4375 5.85938C1.3125 5.625 0.46875 4.64062 0.46875 3.44531V3.42188C0.796875 3.60938 1.19531 3.70312 1.59375 3.72656C0.914062 3.28125 0.492188 2.53125 0.492188 1.6875C0.492188 1.21875 0.609375 0.796875 0.820312 0.445312C2.03906 1.92188 3.86719 2.90625 5.90625 3.02344C5.85938 2.83594 5.83594 2.64844 5.83594 2.46094C5.83594 1.10156 6.9375 0 8.29688 0C9 0 9.63281 0.28125 10.1016 0.773438C10.6406 0.65625 11.1797 0.445312 11.6484 0.164062C11.4609 0.75 11.0859 1.21875 10.5703 1.52344C11.0625 1.47656 11.5547 1.33594 11.9766 1.14844C11.6484 1.64062 11.2266 2.0625 10.7578 2.41406Z" fill="white"/>
</svg>
